<svg width="512" height="512" viewBox="0 0 512 512" fill="none" xmlns="http://www.w3.org/2000/svg">
<path d="M0 142.222C0 63.6751 63.6751 0 142.222 0H369.778C448.325 0 512 63.6751 512 142.222V369.778C512 448.325 448.325 512 369.778 512H142.222C63.6751 512 0 448.325 0 369.778V142.222Z" fill="#00B9E0"/>
<path d="M29.3687 249.316C33.7301 249.316 36.9064 247.988 38.8975 245.333C40.9835 242.584 42.0264 239.36 42.0264 235.662V214.756C42.0264 210.299 42.4531 206.365 43.3064 202.951C44.1598 199.443 45.6768 196.551 47.8575 194.276C50.0383 191.905 53.0724 190.151 56.9598 189.013C60.8472 187.781 65.825 187.165 71.8931 187.165H72.8887V200.818C70.139 200.818 67.8161 201.008 65.9198 201.387C64.0235 201.766 62.5064 202.477 61.3687 203.52C60.2309 204.468 59.3775 205.796 58.8087 207.502C58.3346 209.114 58.0975 211.2 58.0975 213.76V234.098C58.0975 239.787 57.339 244.338 55.822 247.751C54.3998 251.07 51.9346 253.819 48.4264 256C51.9346 258.181 54.3998 260.978 55.822 264.391C57.339 267.805 58.0975 272.308 58.0975 277.902V298.382C58.0975 300.942 58.3346 303.028 58.8087 304.64C59.3775 306.252 60.2309 307.532 61.3687 308.48C62.5064 309.523 64.0235 310.234 65.9198 310.613C67.8161 310.993 70.139 311.182 72.8887 311.182V324.836C66.5361 324.836 61.3687 324.267 57.3864 323.129C53.4042 321.991 50.2753 320.237 47.9998 317.867C45.7242 315.591 44.1598 312.747 43.3064 309.333C42.4531 305.92 42.0264 301.938 42.0264 297.387V276.338C42.0264 272.735 40.9835 269.606 38.8975 266.951C36.9064 264.202 33.7301 262.827 29.3687 262.827V249.316Z" fill="white"/>
<path d="M134.029 266.098C134.029 270.933 133.507 275.437 132.464 279.609C131.421 283.781 129.572 287.431 126.918 290.56C124.358 293.689 120.849 296.154 116.393 297.956C112.032 299.757 106.485 300.658 99.7531 300.658C93.4953 300.658 88.0435 299.805 83.3975 298.098C78.8464 296.296 75.3383 294.4 72.8731 292.409L79.2731 278.329C81.6435 279.941 84.5353 281.505 87.9487 283.022C91.4568 284.445 95.0124 285.156 98.6153 285.156C104.683 285.156 109.092 283.639 111.842 280.605C114.592 277.57 115.966 272.356 115.966 264.96V199.965H134.029V266.098Z" fill="white"/>
<path d="M180.776 285.156C187.224 285.156 191.917 284.065 194.856 281.885C197.796 279.704 199.265 276.622 199.265 272.64C199.265 270.27 198.744 268.231 197.701 266.525C196.753 264.818 195.331 263.301 193.434 261.973C191.633 260.551 189.405 259.271 186.75 258.133C184.095 256.901 181.061 255.716 177.648 254.578C174.234 253.345 170.916 252.018 167.692 250.596C164.563 249.079 161.766 247.23 159.301 245.049C156.931 242.868 154.987 240.261 153.47 237.227C152.048 234.193 151.336 230.542 151.336 226.276C151.336 217.363 154.418 210.394 160.581 205.369C166.744 200.249 175.135 197.689 185.754 197.689C191.917 197.689 197.369 198.4 202.11 199.822C206.945 201.15 210.738 202.619 213.488 204.231L207.941 218.738C204.717 216.936 201.162 215.562 197.274 214.613C193.482 213.665 189.547 213.191 185.47 213.191C180.634 213.191 176.842 214.187 174.092 216.178C171.437 218.169 170.11 220.966 170.11 224.569C170.11 226.75 170.536 228.646 171.39 230.258C172.338 231.775 173.618 233.15 175.23 234.382C176.936 235.615 178.88 236.753 181.061 237.796C183.336 238.839 185.802 239.834 188.456 240.782C193.102 242.489 197.227 244.243 200.83 246.045C204.528 247.751 207.609 249.837 210.074 252.302C212.634 254.673 214.578 257.517 215.905 260.836C217.233 264.059 217.896 267.994 217.896 272.64C217.896 281.553 214.72 288.474 208.368 293.405C202.11 298.24 192.913 300.658 180.776 300.658C176.699 300.658 172.954 300.373 169.541 299.805C166.222 299.33 163.236 298.714 160.581 297.956C158.021 297.197 155.793 296.439 153.896 295.68C152 294.827 150.483 294.068 149.345 293.405L154.608 278.756C157.168 280.178 160.628 281.6 164.99 283.022C169.351 284.445 174.613 285.156 180.776 285.156Z" fill="white"/>
<path d="M248.338 249.173C248.338 254.578 249.001 259.508 250.329 263.965C251.656 268.326 253.552 272.071 256.018 275.2C258.578 278.234 261.659 280.605 265.262 282.311C268.865 284.018 272.942 284.871 277.493 284.871C281.949 284.871 285.979 284.018 289.582 282.311C293.185 280.605 296.219 278.234 298.684 275.2C301.244 272.071 303.188 268.326 304.515 263.965C305.843 259.508 306.506 254.578 306.506 249.173C306.506 243.769 305.843 238.886 304.515 234.525C303.188 230.068 301.244 226.323 298.684 223.289C296.219 220.16 293.185 217.742 289.582 216.036C285.979 214.329 281.949 213.476 277.493 213.476C272.942 213.476 268.865 214.329 265.262 216.036C261.659 217.742 258.578 220.16 256.018 223.289C253.552 226.418 251.656 230.163 250.329 234.525C249.001 238.886 248.338 243.769 248.338 249.173ZM325.28 249.173C325.28 257.612 324 265.055 321.44 271.502C318.975 277.95 315.561 283.354 311.2 287.716C306.933 291.982 301.908 295.206 296.124 297.387C290.34 299.568 284.178 300.658 277.635 300.658C271.093 300.658 264.883 299.568 259.004 297.387C253.221 295.206 248.148 291.982 243.786 287.716C239.52 283.354 236.106 277.95 233.546 271.502C230.986 265.055 229.706 257.612 229.706 249.173C229.706 240.735 230.986 233.339 233.546 226.987C236.106 220.539 239.567 215.135 243.929 210.773C248.385 206.412 253.505 203.141 259.289 200.96C265.072 198.779 271.188 197.689 277.635 197.689C284.083 197.689 290.198 198.779 295.982 200.96C301.766 203.141 306.791 206.412 311.058 210.773C315.419 215.135 318.88 220.539 321.44 226.987C324 233.339 325.28 240.735 325.28 249.173Z" fill="white"/>
<path d="M411.356 298.525C408.133 293.12 404.53 287.336 400.548 281.173C396.565 274.916 392.441 268.658 388.174 262.4C383.908 256.048 379.546 249.932 375.09 244.053C370.728 238.08 366.556 232.723 362.574 227.982V298.525H344.939V199.965H359.588C363.38 203.947 367.457 208.688 371.819 214.187C376.18 219.591 380.542 225.233 384.903 231.111C389.359 236.99 393.626 242.916 397.703 248.889C401.875 254.768 405.573 260.267 408.796 265.387V199.965H426.574V298.525H411.356Z" fill="white"/>
<path d="M482.643 262.827C478.282 262.827 475.058 264.202 472.972 266.951C470.981 269.606 469.985 272.735 469.985 276.338V297.387C469.985 301.938 469.559 305.92 468.705 309.333C467.852 312.747 466.288 315.591 464.012 317.867C461.736 320.237 458.608 321.991 454.625 323.129C450.643 324.267 445.476 324.836 439.123 324.836V311.182C444.622 311.182 448.462 310.282 450.643 308.48C452.824 306.773 453.914 303.408 453.914 298.382V277.902C453.914 272.308 454.625 267.805 456.048 264.391C457.565 260.978 460.077 258.181 463.585 256C460.077 253.819 457.565 251.07 456.048 247.751C454.625 244.338 453.914 239.787 453.914 234.098V213.76C453.914 211.2 453.63 209.114 453.061 207.502C452.587 205.796 451.781 204.468 450.643 203.52C449.505 202.477 447.988 201.766 446.092 201.387C444.196 201.008 441.873 200.818 439.123 200.818V187.165H440.119C446.187 187.165 451.165 187.781 455.052 189.013C458.939 190.151 461.973 191.905 464.154 194.276C466.335 196.551 467.852 199.443 468.705 202.951C469.559 206.365 469.985 210.299 469.985 214.756V235.662C469.985 239.36 470.981 242.584 472.972 245.333C475.058 247.988 478.282 249.316 482.643 249.316V262.827Z" fill="white"/>
</svg>
